<svg width="8" height="12" viewBox="0 0 8 12" fill="none" xmlns="http://www.w3.org/2000/svg">
<path d="M4.7 6.50005C4.3 6.10005 3.7 6.10005 3.3 6.50005L0.3 9.50005C-0.1 9.90005 -0.1 10.5 0.3 10.9C0.7 11.3 1.3 11.3 1.7 10.9L4 8.60005L6.3 10.9C6.5 11.1 6.7 11.2 7 11.2C7.3 11.2 7.5 11.1 7.7 10.9C8.1 10.5 8.1 9.90005 7.7 9.50005L4.7 6.50005ZM1.7 5.50005L4 3.20005L6.3 5.50005C6.5 5.70005 6.7 5.80005 7 5.80005C7.3 5.80005 7.5 5.70005 7.7 5.50005C8.1 5.10005 8.1 4.50005 7.7 4.10005L4.7 1.10005C4.3 0.700049 3.7 0.700049 3.3 1.10005L0.3 4.10005C-0.1 4.50005 -0.1 5.10005 0.3 5.50005C0.7 5.80005 1.3 5.80005 1.7 5.50005Z" fill="#FFBC57"/>
</svg>
