<svg width="36" height="21" viewBox="0 0 36 21" fill="none" xmlns="http://www.w3.org/2000/svg">
<path d="M3.51962 7.00517V19.8484C3.51962 20.1987 3.28498 20.4322 2.93302 20.4322H0.586603C0.234641 20.4322 0 20.1987 0 19.8484V7.00517C0 6.6549 0.234641 6.42139 0.586603 6.42139H2.93302C3.28498 6.42139 3.51962 6.71328 3.51962 7.00517ZM35.4134 6.42139H33.067C32.715 6.42139 32.4804 6.6549 32.4804 7.00517V19.8484C32.4804 20.1987 32.715 20.4322 33.067 20.4322H35.4134C35.7654 20.4322 36 20.1987 36 19.8484V7.00517C36 6.71328 35.7654 6.42139 35.4134 6.42139Z" fill="#FFBC57"/>
<path d="M31.3077 10.5081V14.0108C31.3077 14.3611 31.0731 14.5946 30.7211 14.5946H5.27996C4.928 14.5946 4.69336 14.3611 4.69336 14.0108V10.5081C4.69336 10.1578 4.928 9.92432 5.27996 9.92432H30.7211C31.0731 9.92432 31.3077 10.1578 31.3077 10.5081ZM5.27996 8.75676H12.1961C12.548 8.75676 12.7827 8.52324 12.7827 8.17297V0.583784C12.7827 0.233513 12.548 0 12.1961 0H5.27996C4.928 0 4.69336 0.233513 4.69336 0.583784V8.17297C4.69336 8.52324 4.928 8.75676 5.27996 8.75676ZM14.5425 8.75676H21.4586C21.8106 8.75676 22.0452 8.52324 22.0452 8.17297V0.583784C22.0452 0.233513 21.8106 0 21.4586 0H14.5425C14.1905 0 13.9559 0.233513 13.9559 0.583784V8.17297C13.9559 8.52324 14.1905 8.75676 14.5425 8.75676ZM30.7211 0H23.805C23.453 0 23.2184 0.233513 23.2184 0.583784V8.17297C23.2184 8.52324 23.453 8.75676 23.805 8.75676H30.7211C31.0731 8.75676 31.3077 8.52324 31.3077 8.17297V0.583784C31.3077 0.233513 31.0731 0 30.7211 0ZM30.7211 15.7622H5.27996C4.928 15.7622 4.69336 15.9957 4.69336 16.3459V19.8486C4.69336 20.1989 4.928 20.4324 5.27996 20.4324H8.67645C9.02841 20.4324 9.26305 20.1989 9.26305 19.8486V19.2649H26.738V19.8486C26.738 20.1989 26.9727 20.4324 27.3246 20.4324H30.7211C31.0731 20.4324 31.3077 20.1989 31.3077 19.8486V16.3459C31.3077 15.9957 31.0731 15.7622 30.7211 15.7622Z" fill="#FFBC57"/>
</svg>
